<svg width="1440" height="1215" viewBox="0 0 1440 1215" fill="none" xmlns="http://www.w3.org/2000/svg">
<path fill-rule="evenodd" clip-rule="evenodd" d="M5.34058e-05 155.698L60.0001 149.252C120 142.806 240 128.994 360 89.3986C388.293 80.0631 416.585 69.2432 444.878 58.4233C536.585 23.3519 628.293 -11.7196 720 3.76219C794.702 15.8 869.404 61.381 944.106 106.962L944.107 106.962C989.404 134.602 1034.7 162.241 1080 182.402C1200 235.809 1320 235.809 1380 235.809H1440V315V1215H1439V1343.6L1358.6 1365.2C1279.4 1386.8 1118.6 1430 959 1430C863.153 1430 766.874 1414.42 670.682 1398.85C606.698 1388.5 542.753 1378.15 479 1372.4C319.4 1358 158.6 1372.4 79.3999 1379.6L-1.00006 1386.8V1214H5.34058e-05V315V155.698Z" fill="url(#paint0_linear_830:33)"/>
<defs>
<linearGradient id="paint0_linear_830:33" x1="377.881" y1="44.943" x2="612.195" y2="604.348" gradientUnits="userSpaceOnUse">
<stop stop-color="#FF9191"/>
<stop offset="1" stop-color="#FACB63"/>
</linearGradient>
</defs>
</svg>
