<svg width="112" height="60" viewBox="0 0 112 60" fill="none" xmlns="http://www.w3.org/2000/svg">
<path d="M79.1038 5.81421C79.1038 2.60311 76.5007 2.60811e-06 73.2896 2.60811e-06V2.60811e-06C70.0785 2.60811e-06 67.4754 2.60311 67.4754 5.81421V51.1341C67.4754 56.0185 71.4351 59.9782 76.3195 59.9782V59.9782C78.1319 59.9782 79.9005 59.4214 81.386 58.3831L109.816 38.5127C111.185 37.5563 112 35.9919 112 34.3224V34.3224C112 30.1915 107.354 27.7664 103.965 30.1279L95.5519 35.9899C88.6137 40.8241 79.1038 35.8596 79.1038 27.4033V5.81421Z" fill="url(#paint0_linear_820:3)"/>
<path d="M83.082 12.1134C83.082 7.27705 88.3493 4.28212 92.5054 6.75538V6.75538C94.3944 7.8795 95.5519 9.91524 95.5519 12.1134V27.7446C95.5519 29.8655 94.4739 31.8409 92.6902 32.9883V32.9883C88.5409 35.6576 83.082 32.6784 83.082 27.7446V12.1134Z" fill="url(#paint1_linear_820:3)"/>
<path d="M97.9542 2.60811e-06C94.3232 2.60811e-06 92.9711 4.76242 96.0603 6.67049V6.67049C97.1234 7.32708 97.7705 8.4874 97.7705 9.73686V21.1691C97.7705 24.8618 101.856 27.0916 104.962 25.0937V25.0937C106.297 24.2349 107.104 22.7564 107.104 21.169V4.83044C107.104 2.16266 104.941 2.60811e-06 102.273 2.60811e-06H97.9542Z" fill="url(#paint2_linear_820:3)"/>
<path d="M64.3388 0.0765027L0.0158074 59.8923C0.00572669 59.9017 0 59.9148 0 59.9286V59.9286C0 59.956 0.0221845 59.9781 0.0495505 59.9781H14.3032C17.5168 59.9781 20.6117 58.7636 22.9676 56.578L32.5013 47.7335C37.0228 43.5389 44.3716 46.7455 44.3716 52.913V52.913C44.3716 56.815 47.5348 59.9781 51.4367 59.9781H54.3934C59.9284 59.9781 64.4153 55.4912 64.4153 49.9563V42.2884C64.4153 39.1504 61.8714 36.6066 58.7334 36.6066V36.6066C53.5817 36.6066 51.0892 30.3006 54.8487 26.7783L62.4365 19.6694C63.699 18.4866 64.4153 16.8339 64.4153 15.1039V0.108188C64.4153 0.0682642 64.367 0.0482718 64.3388 0.0765027V0.0765027Z" fill="url(#paint3_linear_820:3)"/>
<defs>
<linearGradient id="paint0_linear_820:3" x1="29.3907" y1="8.55746" x2="91.9721" y2="69.5879" gradientUnits="userSpaceOnUse">
<stop stop-color="#FF9191"/>
<stop offset="1" stop-color="#FACB63"/>
</linearGradient>
<linearGradient id="paint1_linear_820:3" x1="29.3907" y1="8.55746" x2="91.9721" y2="69.5879" gradientUnits="userSpaceOnUse">
<stop stop-color="#FF9191"/>
<stop offset="1" stop-color="#FACB63"/>
</linearGradient>
<linearGradient id="paint2_linear_820:3" x1="29.3907" y1="8.55746" x2="91.9721" y2="69.5879" gradientUnits="userSpaceOnUse">
<stop stop-color="#FF9191"/>
<stop offset="1" stop-color="#FACB63"/>
</linearGradient>
<linearGradient id="paint3_linear_820:3" x1="29.3907" y1="8.55746" x2="91.9721" y2="69.5879" gradientUnits="userSpaceOnUse">
<stop stop-color="#FF9191"/>
<stop offset="1" stop-color="#FACB63"/>
</linearGradient>
</defs>
</svg>
