<svg width="1440" height="1528" viewBox="0 0 1440 1528" fill="none" xmlns="http://www.w3.org/2000/svg">
<path d="M830.786 -12.828C811.334 -75.7302 744.572 -110.953 681.67 -91.5013C618.768 -72.0492 583.545 -5.2879 602.997 57.6143L877.534 945.385C907.123 1041.07 1008.67 1094.65 1104.36 1065.06C1139.86 1054.08 1171.13 1032.46 1193.94 1003.12L1630.49 441.653C1651.51 414.629 1658 379.046 1647.88 346.342C1622.86 265.422 1517.17 246.057 1465.08 312.849L1335.78 478.644C1229.16 615.373 1012.79 575.731 961.568 410.081L830.786 -12.828Z" fill="url(#paint0_linear_821:18)"/>
<path d="M946.872 86.4678C917.575 -8.27127 1002.62 -98.8474 1099.01 -75.5753C1142.82 -64.998 1177.83 -32.1316 1191.15 10.928L1285.84 317.129C1298.68 358.673 1289.53 403.9 1261.54 437.182C1196.43 514.607 1071.45 489.317 1041.56 392.669L946.872 86.4678Z" fill="url(#paint1_linear_821:18)"/>
<path d="M1164.83 -240.914C1093.7 -218.918 1096.06 -117.436 1168.13 -98.7728C1192.93 -92.3506 1212.64 -73.5412 1220.21 -49.0655L1289.46 174.88C1311.83 247.218 1405.38 266.146 1454.11 208.196C1475.06 183.286 1481.91 149.435 1472.29 118.34L1373.32 -201.717C1357.16 -253.976 1301.69 -283.239 1249.43 -267.078L1164.83 -240.914Z" fill="url(#paint2_linear_821:18)"/>
<path d="M506.796 -35.7807L-390.876 1525.61C-391.017 1525.85 -391.05 1526.14 -390.966 1526.41C-390.8 1526.95 -390.231 1527.25 -389.695 1527.08L-110.481 1440.74C-47.5296 1421.27 5.73873 1378.73 38.6487 1321.65L171.827 1090.64C234.988 981.078 398.368 999.375 435.73 1120.19C459.367 1196.63 540.492 1239.43 616.928 1215.79L674.847 1197.88C783.271 1164.35 843.984 1049.27 810.455 940.851L764.005 790.645C744.995 729.175 679.754 694.753 618.283 713.763C517.366 744.97 430.34 636.541 482.648 544.77L588.222 359.547C605.787 328.73 609.807 292.016 599.328 258.129L508.486 -35.6235C508.245 -36.4056 507.178 -36.5048 506.796 -35.7807Z" fill="url(#paint3_linear_821:18)"/>
<defs>
<linearGradient id="paint0_linear_821:18" x1="340.5" y1="-120.5" x2="706.318" y2="1188.15" gradientUnits="userSpaceOnUse">
<stop offset="0.369792" stop-color="#F8F8F8"/>
<stop offset="1" stop-color="#F8F8F8" stop-opacity="0"/>
</linearGradient>
<linearGradient id="paint1_linear_821:18" x1="340.5" y1="-120.5" x2="706.318" y2="1188.15" gradientUnits="userSpaceOnUse">
<stop offset="0.369792" stop-color="#F8F8F8"/>
<stop offset="1" stop-color="#F8F8F8" stop-opacity="0"/>
</linearGradient>
<linearGradient id="paint2_linear_821:18" x1="340.5" y1="-120.5" x2="706.318" y2="1188.15" gradientUnits="userSpaceOnUse">
<stop offset="0.369792" stop-color="#F8F8F8"/>
<stop offset="1" stop-color="#F8F8F8" stop-opacity="0"/>
</linearGradient>
<linearGradient id="paint3_linear_821:18" x1="340.5" y1="-120.5" x2="706.318" y2="1188.15" gradientUnits="userSpaceOnUse">
<stop offset="0.369792" stop-color="#F8F8F8"/>
<stop offset="1" stop-color="#F8F8F8" stop-opacity="0"/>
</linearGradient>
</defs>
</svg>
